<svg width="36" height="36" viewBox="0 0 36 36" fill="none" xmlns="http://www.w3.org/2000/svg">
<circle cx="18" cy="17.9999" r="18" fill="#FF6645"/>
<path d="M5.27208 30.7278C1.89642 27.3522 1.51746e-07 22.7738 0 17.9999C-1.51746e-07 13.226 1.89642 8.64765 5.27208 5.272C8.64773 1.89634 13.2261 -8.34112e-05 18 -8.39233e-05C22.7739 -8.44355e-05 27.3523 1.89634 30.7279 5.27199L5.27208 30.7278Z" fill="#EB5231"/>
<path d="M13.5768 0.547303C13.9897 0.442982 14.4083 0.352927 14.832 0.277696C13.4576 2.87122 12.1479 6.86003 12.5862 10.4753C12.805 12.281 13.4575 13.9788 14.7419 15.3757C16.0264 16.7728 17.9768 17.9058 20.8554 18.5226C28.2994 20.1177 31.9332 22.8102 33.2209 25.6716C33.4094 26.0905 33.5458 26.5087 33.6363 26.9229C33.3686 27.3909 33.0805 27.8458 32.7732 28.2863C32.7828 27.568 32.6427 26.8237 32.309 26.082C31.2202 23.6624 27.9887 21.0739 20.6459 19.5004C17.6098 18.8498 15.4586 17.6327 14.0058 16.0526C12.5528 14.4723 11.8322 12.5659 11.5934 10.5956C11.1625 7.04059 12.2922 3.23108 13.5768 0.547303Z" fill="#FF7A59"/>
<path d="M10.4783 1.64192C11.169 1.32379 11.8833 1.04813 12.6179 0.818264C10.5007 2.87613 8.1048 6.10752 7.30175 9.55187C6.87801 11.3693 6.90095 13.2299 7.62347 15.014C8.34564 16.7973 9.78547 18.5505 12.276 20.122C18.7248 24.1909 21.2024 28.0196 21.4168 31.2068C21.5445 33.1049 20.8661 34.702 19.8409 35.9068C19.3469 35.957 18.8469 35.9872 18.3418 35.9966C19.6193 34.912 20.554 33.2786 20.4191 31.2739C20.237 28.5677 18.0966 24.977 11.7424 20.9677C9.11168 19.3078 7.51231 17.4036 6.6966 15.3894C5.88124 13.376 5.86759 11.299 6.32787 9.32481C7.00444 6.42294 8.71165 3.70878 10.4783 1.64192Z" fill="#FF7A59"/>
<path d="M14.943 35.7412C13.4416 33.9334 10.5473 32.163 5.4589 30.9118C5.03264 30.4977 4.62682 30.0627 4.24309 29.6084C4.30082 29.6213 4.35892 29.6341 4.41742 29.6466C11.098 31.0782 14.7098 33.3935 16.3111 35.9216C15.8498 35.8787 15.3935 35.8183 14.943 35.7412Z" fill="#FF7A59"/>
<path d="M17.0284 35.974C17.3501 35.9911 17.6741 35.9998 18.0001 35.9998C18.0456 35.9998 18.0911 35.9996 18.1366 35.9993C18.8615 34.4521 19.0742 32.5679 18.2209 30.6716C16.9332 27.8102 13.2994 25.1177 5.85541 23.5226C3.31728 22.9787 1.50076 22.0336 0.226074 20.86C0.309009 21.3794 0.414165 21.8914 0.540539 22.395C1.8576 23.3244 3.53858 24.0488 5.64588 24.5004C12.9887 26.0739 16.2202 28.6624 17.309 31.082C18.0917 32.8215 17.8092 34.5755 17.0284 35.974Z" fill="#FF7A59"/>
<path d="M33.8827 9.52218C33.8491 9.5149 33.8154 9.50764 33.7816 9.5004C30.7455 8.8498 28.5943 7.63272 27.1415 6.05258C25.8741 4.67416 25.164 3.04752 24.8448 1.34685C25.2319 1.50615 25.6123 1.67856 25.9854 1.86353C26.3243 3.14666 26.9284 4.34337 27.8776 5.37575C29.0384 6.63823 30.743 7.68505 33.185 8.33022C33.4322 8.7177 33.665 9.11526 33.8827 9.52218Z" fill="#FF7A59"/>
<path d="M35.3876 13.3271C35.5285 13.8525 35.6462 14.3875 35.7395 14.9308C33.9606 13.226 30.8265 11.6105 25.6459 10.5004C22.6098 9.8498 20.4586 8.63272 19.0058 7.05258C17.5528 5.47235 16.8322 3.56588 16.5934 1.59564C16.5319 1.08808 16.5022 0.575321 16.5002 0.0613975C16.831 0.0341055 17.1644 0.0157619 17.5001 0.00660706C17.5001 0.500043 17.5274 0.991028 17.5861 1.47531C17.805 3.28099 18.4575 4.97881 19.7419 6.37575C21.0264 7.77278 22.9768 8.90575 25.8554 9.5226C30.2723 10.4691 33.3477 11.8019 35.3876 13.3271Z" fill="#FF7A59"/>
<path d="M15.9477 0.115523C15.5797 0.157288 15.2151 0.210149 14.8542 0.273761C14.2416 2.36574 13.8964 4.69948 14.1671 6.9328C14.406 8.90304 15.1266 10.8095 16.5795 12.3897C18.0323 13.9699 20.1835 15.187 23.2196 15.8376C30.5624 17.411 33.7939 19.9996 34.8827 22.4192C35.0193 22.7226 35.1234 23.0265 35.1981 23.3289C35.3667 22.7842 35.5102 22.2285 35.6271 21.663C34.2073 18.9317 30.5725 16.3905 23.4291 14.8598C20.5505 14.2429 18.6001 13.1099 17.3156 11.7129C16.0312 10.316 15.3788 8.61815 15.1599 6.81247C14.8898 4.58399 15.2838 2.21358 15.9477 0.115523Z" fill="#FF7A59"/>
<path fill-rule="evenodd" clip-rule="evenodd" d="M14.5 12.9998C14.5 11.343 13.1569 9.99983 11.5 9.99983V19.4998C11.5 23.0897 14.4101 25.9998 18 25.9998C21.5899 25.9998 24.5 23.0897 24.5 19.4998C24.5 15.91 21.5899 12.9998 18 12.9998H14.5ZM14.5 15.9998H18C19.933 15.9998 21.5 17.5668 21.5 19.4998C21.5 21.4328 19.933 22.9998 18 22.9998C16.067 22.9998 14.5 21.4328 14.5 19.4998V15.9998Z" fill="white"/>
</svg>
